<?xml version="1.0" encoding="utf-8"?>
<!-- Generator: Adobe Illustrator 19.0.0, SVG Export Plug-In . SVG Version: 6.00 Build 0)  -->
<svg version="1.1" id="Layer_1" xmlns="http://www.w3.org/2000/svg" xmlns:xlink="http://www.w3.org/1999/xlink" x="0px" y="0px"
	 viewBox="-255 182.6 84.9 54.9" style="enable-background:new -255 182.6 84.9 54.9;" xml:space="preserve">
<style type="text/css">
	.st0{fill:#2CBEEE;}
	.st1{fill:#CA2127;}
	.st2{fill:#C32086;}
	.st3{fill:#E84B26;}
	.st4{fill:#66B545;}
	.st5{fill:#EC6426;}
	.st6{fill:#ED70A8;}
	.st7{fill:#2296D2;}
	.st8{fill:#15934E;}
	.st9{fill:#89191A;}
	.st10{fill:#165E42;}
	.st11{fill:#7F7C32;}
	.st12{fill:#92C243;}
	.st13{fill:#F39121;}
	.st14{fill:#F7DC13;}
	.st15{fill:#0F8C4E;}
	.st16{fill:#292A28;}
	.st17{fill:#2A2B29;}
</style>
<g>
	<path class="st0" d="M-234,219.6c-4.3,0-8.7,0-13,0c-0.5,0-0.7-0.2-0.7-0.7c0-3.7,0-7.4,0-11.1c0-0.2-0.1-0.5,0.2-0.6
		c2.1-1,4.3-2.1,6.4-3c2-1,4-1.9,5.9-2.9c0.5-0.2,0.8-0.5,1.4-0.3c0.1,0.3,0.1,0.7,0.1,1c0,5.4,0,10.7,0,16.1
		C-233.7,218.6-233.6,219.1-234,219.6z"/>
	<path class="st1" d="M-206.2,219.6c-1.8,0-3.7,0-5.5,0c-0.3-0.3-0.3-0.7-0.3-1.1c0-6.9,0-13.9,0-20.8c0-0.2,0-0.5,0.1-0.7
		c0.3-0.7,0.8-0.4,1.1-0.2c1.1,0.6,2.3,1.1,3.4,1.8c2.4,1.4,4.9,2.6,7.3,3.9c0.4,0.2,0.7,0.4,0.8,0.8c0.1,0,0.1,0.1,0.1,0.1
		c0.2,0.2,0.2,0.4,0.2,0.6c0,2.1,0.2,4.3-0.1,6.3c-0.1,0.1-0.1,0.2-0.2,0.3c-0.8,0.5-1.7,0.6-2.5,0.7c-1.1,0.2-2.1,0.4-3.2,0.5
		c-0.7,0.2-1,0.5-1,1.1c0,1.8,0,3.6,0,5.3C-205.9,218.8-205.8,219.2-206.2,219.6z"/>
	<path class="st2" d="M-199.3,203.2c-1.2-0.9-2.6-1.5-4-2.2c-2.6-1.4-5.2-2.7-7.8-4.1c-0.2-0.1-0.5-0.2-0.7-0.3
		c-0.1-0.1-0.1-0.1-0.2-0.2c-0.2-0.3-0.2-0.7-0.2-1.1c0-3.4,0-6.9,0-10.4c0-0.5,0.1-0.9,0.3-1.3c1.3,0.4,2.3,1.2,3.4,1.9
		c2.3,1.3,4.5,2.7,6.7,4c0.6,0.4,1.1,0.8,1.8,1.1c0.5,0.2,0.5,0.5,0.5,1C-199.3,195.6-199.3,199.4-199.3,203.2z"/>
	<path class="st3" d="M-211.6,196.6c0,7.6,0,15.3,0,22.9c-2,0-3.9,0-5.9,0c-0.3-0.3-0.3-0.7-0.3-1.1c0-7.9,0-15.8,0-23.8
		c0-0.2,0-0.5,0.1-0.7c0.2-0.4,0.5-0.5,0.8-0.4C-215.2,194.6-213.2,195.1-211.6,196.6L-211.6,196.6z"/>
	<path class="st4" d="M-189.7,208.9c0.8,0.2,1.8,0.2,2.6,0.5c2.8,0.8,5.7,1.5,8.6,2.2c0.8,0.2,1.1,0.5,1.1,1.4c-0.1,1.9,0,3.9,0,5.9
		c0,0.5-0.1,0.8-0.7,0.8c-3.9,0-7.7,0-11.6-0.1c-0.3-0.3-0.3-0.8-0.3-1.2c0-2.8,0-5.6,0-8.4C-190,209.6-190.1,209.2-189.7,208.9z"/>
	<path class="st5" d="M-217.5,193.6c0,8.7,0,17.3,0,26c-0.7,0-1.4,0-2.1,0c-0.3-0.4-0.2-0.8-0.2-1.3c0-3.2,0-6.4,0-9.7
		c0-0.8-0.3-1.2-1.1-1.6c-1.1-0.5-2.3-0.6-3.2-1.4c-0.1-0.1-0.1-0.2-0.2-0.3c-0.2-2.4-0.1-4.9-0.1-7.4c0-0.3,0.1-0.5,0.3-0.8
		c0.1-0.2,0.2-0.2,0.2-0.4c1-0.8,2.2-1.3,3.4-2c0.6-0.4,1.3-0.7,1.9-1.1C-218.2,193.5-217.9,193.4-217.5,193.6z"/>
	<path class="st6" d="M-217.5,193.6c-1.1,0.4-2.1,1.1-3.1,1.6s-1.9,1.3-3,1.5c0-1.7,0-3.4-0.1-5c0-0.5,0.2-0.8,0.5-1
		c2.5-1.5,5-3,7.5-4.5c1.4-0.8,2.7-1.7,4-2.5c0,4.3,0,8.5,0,12.8c-1.6-0.8-3.3-1.7-4.9-2.6C-216.9,193.8-217.1,193.6-217.5,193.6z"
		/>
	<path class="st7" d="M-234,219.6c0-5.9,0-11.8,0-17.7c0-0.3-0.1-0.7,0.2-0.9c1,0.2,1.8,0.8,2.7,1.1c0.8,0.3,1.5,0.8,2.3,1.1
		c0.1,0.1,0.2,0.2,0.2,0.3c0.1,0.3,0.1,0.6,0.1,0.9c0,4.6,0,9.3,0,13.9c0,0.4,0.1,0.8-0.2,1.2C-230.6,219.6-232.3,219.6-234,219.6z"
		/>
	<path class="st8" d="M-228.8,203.4c0-0.1-0.1-0.2-0.1-0.2c0.1,0,0.1-0.1,0.2-0.1c0.4-0.2,0.6,0.1,0.9,0.2c1,0.5,1.9,0.9,3,1.4
		c0.4,0.2,0.7,0.3,1,0.7c0,0.1,0,0.1,0,0.2c0.2,0.4,0.3,0.8,0.3,1.2c0,3.9,0,7.8,0,11.7c0,0.4,0,0.8-0.3,1.1c-1.6,0-3.2,0-4.8,0
		c-0.2-0.3-0.1-0.7-0.1-1c0-4.7,0-9.5,0-14.2C-228.8,204.1-228.7,203.7-228.8,203.4z"/>
	<path class="st9" d="M-206.2,219.6c0-2.3,0-4.6,0-6.9c0-0.7,0.2-0.9,0.8-1.1c2.1-0.4,4.1-0.8,6.2-1.1c0.3,0.3,0.3,0.7,0.3,1.1
		c0,2.3,0,4.6,0,6.9c0,0.4,0,0.8-0.3,1.1C-201.6,219.6-203.9,219.6-206.2,219.6z"/>
	<path class="st10" d="M-223.9,219.6c0-4.6,0-9.4,0-14c1.2,0.5,2.4,1.1,3.6,1.4c0.5,0.2,0.8,0.5,0.8,1c0,3.9,0,7.7,0,11.6
		C-221,219.6-222.5,219.6-223.9,219.6z"/>
	<path class="st11" d="M-199.2,219.6c0-3,0-6.1,0-9.1l0.1-0.1c0.1-0.1,0.2-0.2,0.2-0.2c1.8-0.4,3.4-0.9,5.3-0.9l0,0
		c0.3,0.3,0.3,0.8,0.3,1.1c0,2.7,0,5.3,0,7.9c0,0.4,0,0.8-0.3,1.1C-195.6,219.6-197.4,219.6-199.2,219.6z"/>
	<path class="st12" d="M-193.7,219.6c0-3.4,0-6.8,0-10.2c1.4-0.2,2.7-0.4,4-0.5c0,3.6,0,7.2,0,10.7
		C-191.1,219.6-192.4,219.6-193.7,219.6z"/>
	<path class="st13" d="M-193.7,209.4c-1.8,0.5-3.7,0.8-5.5,1.1c0-2.4,0-4.7,0-7.2c1.7,0.9,3.4,1.8,5.1,2.7c0.4,0.2,0.4,0.5,0.4,0.8
		C-193.7,207.6-193.7,208.5-193.7,209.4z"/>
	<path class="st14" d="M-223.9,205.4c-1.6-0.7-3.3-1.4-4.8-2.2c0-0.7,0.1-1.4,0-2c-0.2-1,0.2-1.6,1.1-2.1c1.3-0.6,2.5-1.3,3.7-2
		C-223.9,199.9-223.9,202.6-223.9,205.4z"/>
	<path class="st15" d="M-228.8,203.4c0.2,0.3,0.2,0.6,0.2,1c0,5.1,0,10.1,0,15.2c-0.1,0-0.2,0-0.2,0
		C-228.9,214.2-228.9,208.8-228.8,203.4z"/>
</g>
<g>
	<path class="st16" d="M-196.8,231.6c0-0.3,0-0.5,0-0.8c0.1-1,0-1.6-1.3-1.4c-0.6,0.1-0.3-0.5-0.4-0.8c-0.1-0.8,0.1-1.3,1-1
		c0.8,0.1,0.8-0.3,0.7-0.8c-0.1-0.8,0.2-1.1,1-1.2s1.5-0.3,2.2-0.4c0.5-0.1,0.8-0.1,0.8,0.6c0,1.7,0,1.8,1.9,1.7
		c0.8,0,1.1,0.1,1.1,1c0,0.8-0.3,0.9-1,0.9c-2,0-2,0-2,2c0,0.3,0,0.5,0,0.8c0,1.5,0.5,2,2,1.9c0.3,0,1-0.3,0.8,0.4
		c-0.1,0.6,0.6,1.5-0.6,1.6c-1.3,0.1-2.5,0.2-3.7-0.1c-1.7-0.5-2.4-1.3-2.5-3.2C-196.8,232.5-196.8,232.1-196.8,231.6z"/>
	<path class="st16" d="M-214.5,236.3c-1.3,0.1-2.4-0.1-3.6-0.4c-0.4-0.1-0.7-0.2-0.4-0.8c0.1-0.2,0.2-0.5,0.3-0.8
		c0.1-0.5,0.3-0.5,0.7-0.3c1.3,0.4,2.6,0.6,3.9,0.4c0.3-0.1,0.7-0.1,0.7-0.6c0.1-0.4-0.2-0.6-0.6-0.7c-0.8-0.2-1.7-0.6-2.5-0.7
		s-1.5-0.6-2.1-1.2c-0.8-0.8-0.3-2.4,1-3c2.2-1,4.5-1,6.9-0.5c0.3,0.1,0.8,0.1,0.4,0.6c-0.3,0.4,0.1,1.5-1,1.2c-1-0.3-2-0.3-2.9-0.3
		c-0.4,0.1-0.8,0.1-0.8,0.7c0,0.5,0.3,0.6,0.7,0.7c0.9,0.3,1.8,0.6,2.8,0.8c0.8,0.1,1.3,0.7,1.8,1.3c0.8,0.8,0.1,2.4-1.3,2.9
		C-211.8,236-213.2,236.4-214.5,236.3z"/>
	<path class="st16" d="M-208.4,235.7c0-0.1,0.1-0.2,0.1-0.2c0.5-1.5,0.5-1.5,2.1-1.2c1,0.2,2,0.3,3.1,0.1c0.3-0.1,0.7-0.2,0.8-0.6
		c0.1-0.4-0.3-0.6-0.6-0.6c-0.9-0.3-1.7-0.6-2.7-0.8c-0.5-0.1-0.9-0.3-1.3-0.6c-1.7-1-1-2.7,0.2-3.3c2.3-1.2,4.7-1.2,7.3-0.6
		c0.8,0.2,0.2,0.7,0.2,1c-0.1,0.3-0.1,1-0.8,0.7c-0.8-0.3-1.7-0.3-2.7-0.3c-0.3,0-0.5,0.1-0.8,0.1s-0.6,0.3-0.6,0.6
		c0,0.3,0.3,0.4,0.6,0.6c1.1,0.3,2.2,0.6,3.4,1c0.8,0.3,1.4,0.8,1.7,1.6c0.3,1-0.5,2-1.3,2.4C-202.7,236.6-205.4,236.5-208.4,235.7z
		"/>
	<path class="st16" d="M-230.1,230c0-1.8,0-3.7,0-5.5c0-0.6,0.1-0.8,0.8-0.7c0.8,0.1,1.7,0,2.6,0c0.5,0,0.7,0.1,0.7,0.7
		c0,3.7,0,7.3,0,11c0,0.4-0.1,0.7-0.6,0.6c-0.9-0.1-1.9-0.1-2.8,0c-0.6,0-0.7-0.2-0.6-0.7C-230.1,233.6-230.1,231.8-230.1,230z"/>
	<path class="st16" d="M-224.1,231.9c0-1.2,0-2.4,0-3.6c0-0.6,0.1-0.8,0.7-0.8c1,0.1,2.4-0.4,3.1,0.2c0.6,0.6,0.1,2,0.1,2.9
		c0,1.5,0,3.1,0,4.5c0,0.6-0.1,0.8-0.8,0.8c-0.8-0.1-1.6-0.1-2.4,0c-0.6,0.1-0.9-0.1-0.8-0.8C-224,234.2-224.1,233-224.1,231.9z"/>
	<path class="st17" d="M-222.1,223.9c0.8,0.1,1.5,0.1,2,0.8c0.3,0.5,0.3,1-0.2,1.3c-1,0.7-2.1,0.7-3.1,0.2c-0.4-0.2-0.8-0.5-0.7-1
		c0.1-0.5,0.3-0.9,0.8-1C-222.9,224-222.5,224-222.1,223.9z"/>
	<path class="st16" d="M-231.3,235.5c-1.7-3.6-3.5-7.1-5.2-10.7c-0.2-0.3-0.3-0.5-0.8-0.5c-1.4,0-2.8,0-4.2,0
		c-0.3,0-0.6,0.1-0.8,0.4c-0.4,0.7-0.6,1.5-1,2.2c-1.2,2.4-2.4,5-3.6,7.5c-0.3,0.6-0.4,1.1-0.6,1.7c0.6,0,1.3,0,1.9,0.1
		c1.4,0.1,2.7,0.1,2.9-1.7c0-0.1,0.1-0.3,0.2-0.4c0.2-0.6,0.6-0.9,1.3-0.8c1.1,0.1,2.2,0.1,3.3,0c0.8-0.1,1.2,0.3,1.5,1
		c0.6,1.9,0.8,2,2.7,2c0.1,0,0.2,0,0.3,0c0.6,0,1,0,1.6,0C-231.1,236.1-231,236-231.3,235.5z M-238.7,231.2c-0.7,0-1.5,0-2.2,0
		c-0.6,0-0.6-0.2-0.4-0.6c0.7-1.2,1-2.6,1.7-4c0.6,0.7,0.8,1.4,1,2.1c0.2,0.4,0.3,0.8,0.6,1.3C-237.3,231.2-237.3,231.2-238.7,231.2
		z"/>
	<path class="st16" d="M-177.7,235.6c-0.2-0.9-0.1-1.8-0.1-2.7c0-0.6,0-1.2,0-1.7c-0.1-1.5-0.7-2.5-2.2-3.1c-2.5-1-5-0.8-7.6-0.1
		c-1.2,0.3-1.1,0.3-0.6,1.4c0.3,0.7,0.8,0.3,1.1,0.3c1.4-0.3,2.8-0.5,4.3-0.2c0.4,0.1,0.8,0.4,0.8,0.9c-0.1,0.5-0.6,0.3-0.8,0.3
		c-1.8,0-3.6,0.3-5.2,1c-1.3,0.6-2.4,2.3-0.9,3.6c1.4,1.3,4.1,1.6,6.2,0.7c0.5-0.2,1.1-1,1.5,0.1c0,0.1,0.3,0.1,0.4,0.1
		c0.8,0,1.7,0,2.6,0C-177.7,236.1-177.7,236-177.7,235.6z M-182,233.7c-0.6,0.8-2.2,1.1-3.1,0.6c-0.3-0.2-0.6-0.5-0.6-0.9
		s0.2-0.7,0.6-0.8c0.8-0.3,1.5-0.3,2.3-0.4c0.3,0.1,0.8-0.2,0.8,0.2S-181.7,233.3-182,233.7z"/>
</g>
</svg>
