<?xml version="1.0" encoding="utf-8"?>
<!-- Generator: Adobe Illustrator 19.0.0, SVG Export Plug-In . SVG Version: 6.00 Build 0)  -->
<svg version="1.1" id="Layer_1" xmlns="http://www.w3.org/2000/svg" xmlns:xlink="http://www.w3.org/1999/xlink" x="0px" y="0px"
	 viewBox="-190 182.6 213.3 54.9" style="enable-background:new -190 182.6 213.3 54.9;" xml:space="preserve">
<style type="text/css">
	.st0{fill:#2CBEEE;}
	.st1{fill:#CA2127;}
	.st2{fill:#C32086;}
	.st3{fill:#E84B26;}
	.st4{fill:#66B545;}
	.st5{fill:#EC6426;}
	.st6{fill:#ED70A8;}
	.st7{fill:#2296D2;}
	.st8{fill:#15934E;}
	.st9{fill:#89191A;}
	.st10{fill:#165E42;}
	.st11{fill:#7F7C32;}
	.st12{fill:#92C243;}
	.st13{fill:#F39121;}
	.st14{fill:#F7DC13;}
	.st15{fill:#0F8C4E;}
	.st16{fill:#292A28;}
	.st17{fill:#2A2B29;}
</style>
<g>
	<path class="st0" d="M-166.9,233.6c-5.7,0-11.4,0-17.1,0c-0.7,0-0.9-0.2-0.9-0.9c0-4.9,0-9.7,0-14.6c0-0.3-0.1-0.6,0.3-0.8
		c2.8-1.3,5.6-2.7,8.4-4c2.6-1.3,5.2-2.5,7.8-3.8c0.6-0.3,1.1-0.6,1.8-0.4c0.1,0.4,0.1,0.9,0.1,1.3c0,7.1,0,14.1,0,21.2
		C-166.6,232.3-166.4,233-166.9,233.6z"/>
	<path class="st1" d="M-130.4,233.6c-2.4,0-4.8,0-7.2,0c-0.4-0.4-0.4-0.9-0.4-1.5c0-9.1,0-18.2,0-27.3c0-0.3,0-0.6,0.1-0.9
		c0.4-0.9,1-0.5,1.5-0.2c1.5,0.8,3,1.5,4.4,2.4c3.2,1.8,6.4,3.4,9.6,5.1c0.5,0.3,0.9,0.5,1.1,1c0.1,0,0.1,0.1,0.1,0.1
		c0.2,0.2,0.3,0.5,0.3,0.8c0,2.8,0.2,5.6-0.1,8.3c-0.1,0.1-0.1,0.3-0.2,0.4c-1,0.6-2.2,0.8-3.3,0.9c-1.4,0.2-2.8,0.5-4.2,0.7
		c-0.9,0.2-1.3,0.6-1.3,1.5c0,2.3,0,4.7,0,7C-130.1,232.5-130,233.1-130.4,233.6z"/>
	<path class="st2" d="M-121.4,212.1c-1.6-1.2-3.4-2-5.2-2.9c-3.4-1.8-6.8-3.6-10.2-5.4c-0.3-0.1-0.6-0.3-0.9-0.4
		c-0.1-0.1-0.1-0.1-0.2-0.2c-0.3-0.4-0.2-0.9-0.2-1.4c0-4.5,0-9.1,0-13.6c0-0.6,0.1-1.2,0.4-1.7c1.7,0.5,3,1.6,4.5,2.5
		c3,1.7,5.9,3.5,8.8,5.2c0.8,0.5,1.5,1.1,2.3,1.4c0.6,0.3,0.7,0.7,0.7,1.3C-121.4,202.1-121.4,207.1-121.4,212.1z"/>
	<path class="st3" d="M-137.6,203.4c0,10,0,20.1,0,30.1c-2.6,0-5.1,0-7.7,0c-0.4-0.4-0.4-0.9-0.4-1.5c0-10.4,0-20.8,0-31.2
		c0-0.3,0-0.6,0.1-0.9c0.2-0.5,0.6-0.7,1-0.5C-142.3,200.8-139.7,201.5-137.6,203.4L-137.6,203.4z"/>
	<path class="st4" d="M-108.8,219.5c1.1,0.2,2.3,0.3,3.4,0.7c3.7,1.1,7.5,2,11.3,2.9c1.1,0.3,1.5,0.7,1.4,1.9c-0.1,2.5,0,5.1,0,7.7
		c0,0.6-0.1,1-0.9,1c-5.1,0-10.1,0-15.2-0.1c-0.4-0.4-0.4-1-0.4-1.6c0-3.7,0-7.3,0-11C-109.2,220.5-109.3,219.9-108.8,219.5z"/>
	<path class="st5" d="M-145.3,199.5c0,11.4,0,22.7,0,34.1c-0.9,0-1.8,0-2.7,0c-0.4-0.5-0.3-1.1-0.3-1.7c0-4.2,0-8.4,0-12.7
		c0-1.1-0.4-1.6-1.4-2.1c-1.4-0.6-3-0.8-4.2-1.9c-0.1-0.1-0.1-0.3-0.2-0.4c-0.2-3.2-0.1-6.4-0.1-9.7c0-0.4,0.1-0.7,0.4-1
		c0.1-0.2,0.2-0.3,0.3-0.5c1.3-1.1,2.9-1.7,4.4-2.6c0.8-0.5,1.7-0.9,2.5-1.4C-146.2,199.4-145.8,199.2-145.3,199.5z"/>
	<path class="st6" d="M-145.3,199.5c-1.5,0.5-2.7,1.5-4.1,2.1c-1.4,0.6-2.5,1.7-4,2c0-2.2,0-4.4-0.1-6.6c0-0.6,0.3-1,0.7-1.3
		c3.3-2,6.6-3.9,9.8-5.9c1.8-1.1,3.5-2.2,5.3-3.3c0,5.6,0,11.2,0,16.8c-2.1-1.1-4.3-2.2-6.4-3.4
		C-144.5,199.7-144.8,199.5-145.3,199.5z"/>
	<path class="st7" d="M-166.9,233.6c0-7.7,0-15.5,0-23.2c0-0.4-0.1-0.9,0.3-1.2c1.3,0.2,2.3,1,3.5,1.5c1,0.4,2,1,3,1.4
		c0.1,0.1,0.2,0.2,0.3,0.4c0.1,0.4,0.1,0.8,0.1,1.2c0,6.1,0,12.2,0,18.3c0,0.5,0.1,1.1-0.3,1.6
		C-162.5,233.6-164.7,233.6-166.9,233.6z"/>
	<path class="st8" d="M-160.1,212.3c0-0.1-0.1-0.2-0.1-0.2c0.1,0,0.1-0.1,0.2-0.1c0.5-0.2,0.8,0.1,1.2,0.3c1.3,0.6,2.5,1.2,3.9,1.8
		c0.5,0.2,0.9,0.4,1.3,0.9c0,0.1,0,0.1,0,0.2c0.3,0.5,0.4,1,0.4,1.6c0,5.1,0,10.2,0,15.4c0,0.5,0,1.1-0.4,1.5c-2.1,0-4.2,0-6.3,0
		c-0.2-0.4-0.1-0.9-0.1-1.3c0-6.2,0-12.5,0-18.7C-160.1,213.2-160,212.7-160.1,212.3z"/>
	<path class="st9" d="M-130.4,233.6c0-3,0-6.1,0-9.1c0-0.9,0.3-1.2,1.1-1.4c2.7-0.5,5.4-1,8.1-1.5c0.4,0.4,0.4,0.9,0.4,1.4
		c0,3,0,6,0,9c0,0.5,0,1-0.4,1.5C-124.4,233.6-127.4,233.6-130.4,233.6z"/>
	<path class="st10" d="M-153.7,233.6c0-6.1,0-12.3,0-18.4c1.6,0.7,3.1,1.4,4.7,1.9c0.7,0.3,1,0.6,1,1.3c0,5.1,0,10.1,0,15.2
		C-149.9,233.6-151.8,233.6-153.7,233.6z"/>
	<path class="st11" d="M-121.3,233.6c0-4,0-8,0-11.9l0.1-0.1c0.1-0.1,0.2-0.2,0.3-0.2c2.3-0.5,4.5-1.2,6.9-1.2l0,0
		c0.4,0.4,0.4,1,0.4,1.5c0,3.5,0,7,0,10.4c0,0.5,0,1.1-0.4,1.5C-116.5,233.6-118.9,233.6-121.3,233.6z"/>
	<path class="st12" d="M-114.1,233.6c0-4.5,0-8.9,0-13.4c1.8-0.2,3.5-0.5,5.3-0.7c0,4.7,0,9.4,0,14.1
		C-110.6,233.6-112.4,233.6-114.1,233.6z"/>
	<path class="st13" d="M-114.1,220.2c-2.3,0.7-4.8,1-7.2,1.4c0-3.1,0-6.2,0-9.4c2.2,1.2,4.5,2.4,6.7,3.5c0.5,0.2,0.5,0.6,0.5,1
		C-114.1,217.9-114.1,219-114.1,220.2z"/>
	<path class="st14" d="M-153.7,214.9c-2.1-0.9-4.3-1.8-6.3-2.9c0-0.9,0.1-1.8,0-2.6c-0.2-1.3,0.2-2.1,1.4-2.7
		c1.7-0.8,3.3-1.7,4.9-2.6C-153.7,207.7-153.7,211.3-153.7,214.9z"/>
	<path class="st15" d="M-160.1,212.3c0.3,0.4,0.2,0.8,0.2,1.3c0,6.7,0,13.3,0,20c-0.1,0-0.2,0-0.2,0
		C-160.2,226.5-160.2,219.4-160.1,212.3z"/>
</g>
<path class="st16" d="M-9.1,225.7c0-0.4,0-0.7,0-1.1c0.2-1.4,0-2.3-1.8-2c-0.9,0.2-0.5-0.7-0.6-1.1c-0.2-1.1,0.1-1.8,1.4-1.5
	c1.1,0.2,1.1-0.5,1-1.2c-0.2-1.1,0.3-1.6,1.4-1.7c1.1-0.1,2.1-0.4,3.1-0.6c0.7-0.1,1.2-0.1,1.2,0.9c0,2.5,0,2.6,2.7,2.5
	c1.1,0,1.6,0.1,1.6,1.5c0,1.1-0.4,1.3-1.4,1.3c-2.9,0-2.9,0-2.9,2.9c0,0.4,0,0.7,0,1.1c0,2.2,0.7,2.8,2.9,2.7c0.5,0,1.4-0.4,1.2,0.6
	c-0.1,0.8,0.8,2.1-0.9,2.3c-1.8,0.2-3.6,0.3-5.3-0.1c-2.5-0.7-3.4-1.9-3.6-4.6C-9.1,226.9-9.1,226.3-9.1,225.7z"/>
<path class="st16" d="M-34.5,232.3c-1.8,0.1-3.5-0.2-5.1-0.6c-0.6-0.2-1-0.3-0.6-1.1c0.2-0.3,0.3-0.7,0.4-1.1c0.1-0.7,0.4-0.7,1-0.5
	c1.8,0.6,3.7,0.9,5.6,0.6c0.5-0.1,1-0.2,1-0.8c0.1-0.6-0.3-0.9-0.8-1c-1.2-0.3-2.4-0.8-3.6-1c-1.2-0.2-2.1-0.9-3-1.7
	c-1.2-1.1-0.4-3.5,1.4-4.3c3.2-1.5,6.5-1.5,9.9-0.7c0.4,0.1,1.2,0.1,0.6,0.9c-0.4,0.6,0.1,2.1-1.4,1.7c-1.4-0.4-2.8-0.5-4.2-0.4
	c-0.6,0.1-1.2,0.2-1.2,1c0,0.7,0.5,0.8,1,1c1.3,0.4,2.6,0.8,4,1.1c1.1,0.2,1.9,1,2.6,1.8c1.1,1.2,0.1,3.5-1.8,4.2
	C-30.6,232-32.6,232.5-34.5,232.3z"/>
<path class="st16" d="M-25.7,231.5c0-0.2,0.1-0.3,0.1-0.3c0.7-2.2,0.7-2.2,3-1.7c1.4,0.3,2.9,0.5,4.4,0.2c0.5-0.1,1-0.3,1.1-0.9
	c0.1-0.6-0.5-0.8-0.9-0.9c-1.3-0.4-2.5-0.8-3.8-1.1c-0.7-0.2-1.3-0.5-1.9-0.9c-2.4-1.5-1.4-3.9,0.3-4.8c3.3-1.7,6.8-1.7,10.4-0.8
	c1.1,0.3,0.3,1,0.3,1.5c-0.1,0.5-0.2,1.4-1.1,1c-1.2-0.4-2.5-0.5-3.8-0.5c-0.4,0-0.7,0.1-1.1,0.2c-0.4,0.1-0.8,0.4-0.8,0.9
	s0.4,0.6,0.8,0.8c1.6,0.5,3.2,0.9,4.9,1.4c1.2,0.4,2,1.1,2.4,2.3c0.5,1.5-0.7,2.9-1.9,3.4C-17.5,232.8-21.5,232.7-25.7,231.5z"/>
<path class="st16" d="M-56.9,223.3c0-2.6,0-5.3,0-7.9c0-0.8,0.2-1.1,1.1-1c1.2,0.1,2.5,0,3.7,0c0.7,0,1,0.2,1,1c0,5.3,0,10.5,0,15.8
	c0,0.6-0.1,1-0.9,0.9c-1.3-0.1-2.7-0.1-4,0c-0.8,0-1-0.3-0.9-1C-56.8,228.5-56.9,225.9-56.9,223.3z"/>
<path class="st16" d="M-48.2,226c0-1.7,0-3.4,0-5.1c0-0.8,0.1-1.2,1-1.1c1.5,0.1,3.5-0.6,4.5,0.3c0.8,0.8,0.2,2.8,0.2,4.2
	c0,2.2,0,4.4,0,6.5c0,0.8-0.1,1.2-1.1,1.1c-1.1-0.1-2.3-0.1-3.5,0c-0.9,0.1-1.3-0.2-1.2-1.1C-48.1,229.3-48.2,227.7-48.2,226z"/>
<path class="st17" d="M-45.4,214.6c1.1,0.2,2.1,0.1,2.8,1.1c0.5,0.7,0.5,1.4-0.3,1.9c-1.5,1-3,1-4.5,0.3c-0.6-0.3-1.1-0.7-1-1.4
	s0.5-1.3,1.2-1.4C-46.5,214.8-45.9,214.7-45.4,214.6z"/>
<path class="st16" d="M-58.6,231.2c-2.5-5.1-5-10.2-7.4-15.3c-0.3-0.5-0.5-0.7-1.1-0.7c-2,0-4,0-6,0c-0.5,0-0.8,0.2-1.1,0.6
	c-0.6,1-0.9,2.1-1.4,3.2c-1.7,3.5-3.4,7.1-5.1,10.7c-0.4,0.8-0.6,1.6-0.9,2.4c0.9,0,1.8,0,2.7,0.1c2,0.2,3.8,0.2,4.1-2.5
	c0-0.2,0.2-0.4,0.3-0.6c0.3-0.9,0.9-1.3,1.9-1.2c1.6,0.1,3.2,0.1,4.8,0c1.2-0.1,1.7,0.4,2.1,1.5c0.9,2.7,1.1,2.8,3.9,2.8
	c0.1,0,0.3,0,0.4,0c0.8,0,1.5,0,2.3,0C-58.3,232.1-58.2,231.9-58.6,231.2z M-69.1,225c-1,0-2.1,0-3.1,0c-0.8,0-0.9-0.3-0.6-0.9
	c1-1.7,1.4-3.7,2.4-5.7c0.8,1,1.1,2,1.5,3c0.3,0.6,0.5,1.2,0.8,1.8C-67.2,225.1-67.2,225-69.1,225z"/>
<path class="st16" d="M18.2,231.3c-0.3-1.3-0.1-2.6-0.2-3.9c0-0.8,0-1.7,0-2.5c-0.1-2.1-1-3.6-3.1-4.4c-3.6-1.4-7.2-1.1-10.9-0.2
	c-1.7,0.4-1.6,0.4-0.9,2c0.5,1,1.1,0.5,1.6,0.4c2-0.5,4-0.7,6.1-0.3c0.6,0.1,1.2,0.6,1.1,1.3c-0.1,0.7-0.8,0.4-1.2,0.4
	c-2.6,0-5.1,0.4-7.4,1.5c-1.9,0.9-3.4,3.3-1.3,5.2c2,1.8,5.9,2.3,8.9,1c0.7-0.3,1.6-1.4,2.1,0.2c0,0.1,0.4,0.1,0.6,0.1
	c1.2,0,2.5,0,3.7,0C18.2,232.1,18.3,231.9,18.2,231.3z M12.1,228.6c-0.9,1.1-3.1,1.6-4.4,0.9c-0.5-0.3-0.8-0.7-0.8-1.3
	s0.3-1,0.9-1.2c1.1-0.5,2.2-0.4,3.3-0.6c0.4,0.1,1.1-0.3,1.2,0.3C12.4,227.3,12.6,228,12.1,228.6z"/>
</svg>
